<svg width="239" height="209" viewBox="0 0 239 209" fill="none" xmlns="http://www.w3.org/2000/svg">
<path d="M115.17 2.5C117.095 -0.83333 121.906 -0.833337 123.83 2.5L237.713 199.75C239.637 203.083 237.231 207.25 233.382 207.25H5.61782C1.76882 207.25 -0.636818 203.083 1.28768 199.75L115.17 2.5Z" fill="#9ABFFE" fill-opacity="0.43"/>
<path d="M115.393 15.8334C116.975 14.7219 117.738 12.7713 117.331 10.8811C116.178 5.5331 123.422 2.71382 126.188 7.43448L151.999 51.4997L237.544 199.505C240.129 203.977 235.248 209.043 230.683 206.626C229.907 206.216 229.04 206.01 228.162 206.03L136.439 208.059C125.418 208.303 116.278 199.583 116.003 188.562L111.844 21.7948C111.791 19.6652 112.806 17.6502 114.549 16.4258L115.393 15.8334Z" fill="#9ABFFE" fill-opacity="0.43"/>
<path d="M84.9596 121.263C84.5541 116.793 78.9156 115.085 76.0974 118.579L32.4229 172.727C28.7682 177.258 31.7493 184.026 37.5594 184.388L73.2154 186.61C86.4801 187.437 96.8466 175.335 93.993 162.355L84.9596 121.263Z" fill="#9ABFFE" fill-opacity="0.43"/>
</svg>
